<?xml version="1.0" standalone="no"?>
<!DOCTYPE svg PUBLIC "-//W3C//DTD SVG 20010904//EN"
 "http://www.w3.org/TR/2001/REC-SVG-20010904/DTD/svg10.dtd">
<svg version="1.0" xmlns="http://www.w3.org/2000/svg"
 width="400.000000pt" height="400.000000pt" viewBox="0 0 400.000000 400.000000"
 preserveAspectRatio="xMidYMid meet">
<metadata>
Created by potrace 1.14, written by Peter Selinger 2001-2017
</metadata>
<g transform="translate(0.000000,400.000000) scale(0.100000,-0.100000)"
fill="#000000" stroke="none">
<path d="M0 3274 c0 -656 2 -726 16 -720 8 3 24 1 35 -5 15 -7 24 -7 35 1 7 7
20 10 29 7 8 -4 21 0 28 8 17 17 54 9 83 -17 14 -12 24 -16 28 -9 4 5 13 8 21
4 9 -3 15 1 16 11 1 9 3 21 4 26 1 6 3 12 4 15 0 3 12 -1 24 -10 18 -11 49
-15 123 -14 169 3 198 2 239 -9 32 -8 6 -10 -122 -8 -122 1 -163 -2 -163 -11
0 -6 5 -15 10 -18 19 -12 10 -44 -18 -64 -17 -12 -50 -21 -83 -24 -40 -3 -55
-9 -57 -21 -4 -17 -37 -22 -46 -7 -7 10 -87 -9 -99 -24 -5 -5 -6 0 -2 12 7 24
-13 42 -25 22 -7 -10 -14 -10 -33 -2 -36 17 -47 3 -46 -59 l2 -56 36 5 c20 3
40 10 46 14 5 5 14 9 20 9 5 0 3 -5 -5 -11 -11 -8 -9 -9 10 -3 14 4 45 6 69 5
36 -2 42 1 38 13 -4 9 -2 16 3 16 6 0 10 -7 10 -15 0 -9 9 -15 21 -15 38 0 99
23 99 37 0 16 15 17 43 1 33 -18 86 -18 144 -1 41 12 59 13 84 4 27 -9 34 -8
44 6 7 10 20 14 33 11 13 -4 23 0 26 8 7 17 32 18 40 2 5 -10 7 -10 12 0 7 15
48 16 74 2 15 -8 21 -6 30 9 14 28 14 28 -24 35 -19 4 -39 13 -46 21 -9 11 -6
14 17 18 15 2 -1 5 -37 6 -36 1 -72 6 -80 12 -22 16 194 2 255 -16 26 -8 65
-15 86 -15 36 0 61 -23 36 -34 -9 -3 -9 -5 0 -5 6 -1 15 4 18 9 3 6 21 9 38 9
30 -2 31 -2 5 -6 -16 -2 -28 -8 -28 -12 0 -9 78 -26 95 -21 18 5 58 0 69 -9 6
-5 46 -11 89 -13 69 -3 78 -1 74 14 -3 10 0 15 8 12 9 -4 11 -14 5 -34 -4 -16
-6 -31 -3 -34 8 -8 -20 -33 -47 -41 -79 -24 -108 -53 -80 -81 11 -11 15 -189
5 -216 -10 -26 32 -39 105 -33 35 3 60 1 60 -4 0 -5 15 -7 33 -4 24 4 37 0 51
-16 26 -29 15 -36 -57 -37 -34 -1 -98 -5 -143 -9 l-81 -8 -18 -103 c-11 -63
-24 -105 -32 -108 -7 -3 -13 -11 -13 -19 0 -7 -20 -19 -45 -26 -25 -7 -77 -29
-116 -47 -68 -33 -74 -34 -193 -34 -68 0 -184 -3 -259 -7 -135 -6 -137 -6
-137 -30 0 -27 -4 -26 120 -24 65 0 89 -2 75 -8 -11 -5 -66 -10 -122 -10
l-103 -1 0 174 c0 106 -4 177 -10 181 -8 5 -17 -231 -11 -282 1 -8 -23 -13
-76 -15 -67 -3 -78 -5 -77 -20 1 -10 -2 -18 -6 -18 -8 0 -19 79 -21 160 -2 56
-4 45 -15 -67 -4 -44 -10 -63 -19 -63 -19 0 -24 11 -26 56 0 21 -6 84 -12 139
l-12 100 -10 -155 -10 -155 -80 -6 -80 -5 69 -2 c60 -2 72 -5 92 -28 16 -17
24 -37 24 -61 0 -46 8 -39 13 12 5 46 17 53 42 25 13 -15 18 -33 16 -65 -1
-27 2 -45 9 -45 6 0 8 10 4 24 -3 13 -1 27 6 31 6 4 8 15 5 24 -4 13 4 23 30
37 19 10 35 22 35 25 0 4 22 6 49 5 56 -1 59 -16 3 -17 l-37 -1 32 -9 c41 -12
63 -43 64 -94 1 -22 3 -32 6 -22 2 9 9 17 15 17 6 0 8 10 5 22 -7 26 17 58 45
58 10 0 18 5 18 10 0 6 76 10 208 10 189 0 210 -2 240 -20 38 -23 39 -26 10
-51 l-23 -18 28 -1 c15 0 43 -7 63 -15 32 -13 34 -16 23 -37 -12 -22 -11 -22
8 -6 19 17 21 17 51 -20 79 -95 141 -209 142 -262 0 -12 2 -12 9 -2 4 7 6 24
4 36 -3 13 0 27 6 30 8 5 9 -7 5 -41 -9 -74 3 -146 27 -161 11 -7 25 -9 32 -5
7 4 26 9 42 10 17 1 45 3 63 5 26 3 32 1 27 -11 -4 -12 -2 -12 9 2 13 17 14
16 19 -2 3 -11 0 -22 -6 -24 -7 -2 -6 -20 3 -55 6 -29 9 -64 6 -78 -7 -25 -6
-25 10 -10 10 11 18 40 22 81 5 65 22 92 22 35 0 -30 14 -41 23 -17 6 17 19 2
22 -25 1 -13 3 -28 4 -34 1 -11 7 -13 61 -18 29 -2 36 -7 38 -28 2 -13 -4 -31
-12 -38 -24 -19 -19 -30 14 -30 21 0 28 -4 24 -14 -8 -21 -36 -29 -45 -14 -6
10 -12 8 -23 -7 -9 -11 -16 -28 -16 -37 0 -9 -4 -19 -9 -22 -10 -7 -2 -56 9
-56 5 0 11 6 14 13 4 8 5 7 4 -3 -1 -8 4 -33 10 -54 6 -22 9 -43 6 -47 -2 -4
0 -10 4 -13 5 -3 7 -16 5 -30 -3 -14 2 -32 12 -43 9 -10 25 -29 35 -43 l19
-25 13 33 c10 26 18 32 43 32 35 0 49 -8 58 -34 5 -12 1 -26 -9 -37 -14 -15
-14 -19 -3 -19 12 0 12 -2 0 -9 -11 -7 -4 -11 25 -16 21 -4 48 -9 59 -12 18
-5 18 -3 -4 21 -16 16 -20 26 -11 26 9 0 5 9 -10 25 l-23 25 21 0 c12 0 22 5
22 10 0 6 -5 10 -10 10 -7 0 -7 6 0 20 6 11 18 20 27 20 13 0 14 3 5 12 -23
23 -146 25 -169 3 -8 -8 -19 -15 -24 -15 -13 0 -11 18 3 23 7 3 0 6 -17 7 -28
1 -29 2 -10 13 13 8 21 25 23 52 4 45 22 70 58 79 13 4 24 13 24 21 0 8 5 15
11 15 5 0 7 5 4 10 -4 6 8 10 28 10 32 0 33 -1 32 -37 0 -21 -4 -45 -7 -53 -3
-8 -8 -25 -11 -38 -8 -36 21 -27 37 12 17 41 27 48 77 50 29 2 39 -2 41 -13 0
-9 2 -20 3 -26 2 -5 3 -13 4 -17 2 -17 42 35 48 62 5 27 9 30 37 27 42 -4 56
-14 50 -35 -5 -14 -3 -14 10 2 20 25 20 36 1 36 -9 0 -30 7 -48 17 l-32 16 27
9 c16 6 28 14 28 19 0 6 4 8 9 4 15 -9 41 36 41 71 0 31 21 51 41 38 5 -3 9 1
9 8 0 7 7 22 16 33 14 19 15 19 20 -3 4 -12 10 -22 15 -22 12 0 11 14 -2 27
-8 8 -8 13 0 17 6 4 11 26 12 49 0 23 3 36 6 29 2 -6 9 -10 14 -6 12 7 12 51
-1 59 -5 3 -10 -3 -10 -14 0 -12 -4 -21 -10 -21 -5 0 -10 13 -10 30 0 34 23
50 73 50 21 0 41 7 52 20 23 26 45 26 52 0 8 -29 21 -25 25 8 4 32 48 47 48
15 1 -15 2 -15 9 -3 5 8 11 29 14 45 5 25 2 31 -13 32 -10 1 -39 9 -64 17 -50
17 -176 22 -176 7 0 -11 -56 -32 -73 -26 -7 2 -37 6 -67 9 -145 14 -192 32
-85 34 35 1 67 -3 70 -8 9 -14 65 -12 65 1 0 6 9 9 20 6 24 -6 26 2 3 18 -13
10 -2 12 63 14 43 1 81 6 84 12 6 9 48 24 93 34 10 2 29 0 42 -5 30 -11 64 -2
43 11 -10 7 -9 9 5 9 9 0 17 6 17 14 0 18 32 26 76 19 29 -5 37 -1 55 21 20
26 22 26 40 10 11 -9 19 -12 19 -7 0 6 -7 16 -15 23 -20 16 -9 27 30 32 28 3
30 1 27 -30 -2 -18 1 -32 7 -32 6 0 11 16 11 35 0 20 5 37 13 39 6 2 40 13 75
24 34 12 70 18 80 15 9 -4 -5 12 -33 35 -28 24 -61 42 -75 43 -14 0 -34 4 -45
8 -18 7 -19 18 -18 192 1 126 -1 168 -7 134 -5 -27 -9 -83 -9 -122 -1 -40 -3
-73 -6 -73 -16 0 -165 53 -170 60 -8 12 -27 142 -25 174 0 16 -9 49 -20 74
-14 29 -19 54 -15 73 5 20 0 36 -17 60 l-23 31 23 15 c32 22 29 62 -6 75 -32
12 -56 64 -67 141 -4 27 -8 57 -10 67 -4 22 10 36 49 46 22 5 27 4 21 -6 -5
-9 -4 -11 4 -6 18 12 61 -2 61 -19 0 -8 5 -15 10 -15 6 0 10 7 10 15 0 20 26
19 34 0 4 -12 16 -14 43 -11 21 3 44 5 50 5 7 1 20 16 28 34 8 17 13 25 11 15
-3 -12 5 -18 32 -24 20 -4 42 -7 48 -6 6 1 38 -4 70 -12 47 -11 52 -15 27 -15
-59 -2 -34 -19 35 -25 172 -14 324 -7 351 18 9 8 33 16 54 18 22 1 37 7 37 15
0 17 17 17 23 1 3 -8 6 -6 6 4 1 14 8 17 36 13 20 -2 40 -7 45 -10 5 -3 11 -1
14 4 3 4 24 11 46 15 23 4 51 13 63 20 12 8 45 18 72 22 54 7 108 34 70 34
-17 0 -17 2 -5 10 8 5 32 10 53 10 l37 0 0 750 0 750 -2000 0 -2000 0 0 -726z
m2198 -476 c-2 -6 -10 -14 -18 -16 -8 -3 -10 0 -5 8 5 8 4 11 -3 6 -21 -13 -1
-31 36 -32 20 -1 29 1 20 3 -28 7 -22 33 8 33 19 0 25 -4 21 -14 -8 -20 32
-33 44 -15 5 8 9 10 9 4 0 -21 -17 -35 -33 -29 -9 3 -17 2 -17 -4 0 -6 23 -18
51 -27 28 -9 48 -19 46 -21 -2 -2 -35 0 -73 6 -38 5 -112 10 -164 10 -65 0
-90 3 -80 10 8 5 31 10 50 11 l35 1 -30 8 -30 8 30 2 c17 1 39 5 50 10 18 8
18 9 2 9 -10 1 -15 6 -12 11 3 6 -1 10 -9 10 -8 0 -18 5 -21 10 -4 6 14 10 45
10 35 0 50 -4 48 -12z m1486 -84 c27 -10 18 -28 -28 -52 -24 -13 -46 -32 -49
-43 -5 -17 -9 -18 -33 -8 -25 9 -31 7 -46 -11 -11 -14 -19 -17 -24 -9 -4 7
-22 9 -50 5 -73 -10 -129 25 -64 39 17 4 30 13 30 20 0 17 23 25 75 25 30 0
45 5 49 16 3 8 9 13 14 10 4 -2 14 -1 22 5 17 10 80 12 104 3z m-484 -74 c23
-7 36 -7 38 0 5 15 22 12 22 -4 0 -15 -43 -31 -73 -27 -11 2 -21 -5 -24 -18
-3 -14 -17 -22 -44 -26 -40 -7 -54 -25 -19 -25 11 0 20 -7 20 -15 0 -10 10
-15 34 -15 18 0 39 -6 45 -14 9 -11 -1 -14 -54 -20 -36 -4 -72 -2 -82 3 -10 5
-26 12 -36 15 -10 3 -15 10 -12 16 11 18 -21 11 -43 -10 -22 -21 -42 -26 -42
-11 0 15 -32 22 -46 10 -8 -6 -25 -8 -39 -5 -16 4 -25 2 -25 -5 0 -7 -9 -9
-25 -5 -14 4 -25 2 -25 -4 0 -5 11 -10 24 -10 14 0 28 -5 32 -11 10 -16 -17
-29 -37 -18 -10 5 -29 9 -42 9 -14 0 -30 6 -36 14 -10 11 -7 16 15 23 27 9 26
9 -29 37 -56 29 -56 29 -39 52 9 13 22 24 28 24 7 0 15 7 18 16 5 13 15 14 49
9 23 -4 44 -10 47 -14 8 -10 110 -11 110 -1 0 6 -4 10 -10 10 -5 0 -10 7 -10
15 0 17 45 21 55 5 8 -12 115 -7 140 8 21 12 58 9 115 -8z m-951 -36 c51 -17
123 -26 131 -16 8 12 114 42 144 42 15 0 36 -5 46 -10 12 -6 28 -7 43 -1 21 8
26 6 31 -11 6 -25 0 -38 -19 -38 -7 0 -15 -6 -17 -12 -4 -10 -16 -10 -57 1
-47 12 -54 11 -71 -4 -11 -10 -24 -14 -31 -9 -7 4 -36 6 -66 5 -34 -1 -58 3
-67 12 -12 12 -62 21 -236 44 -36 5 -41 8 -25 14 26 11 139 1 194 -17z m56
-151 c5 -12 22 -24 37 -27 19 -4 26 -10 22 -21 -4 -9 2 -19 17 -25 26 -11 37
-12 -151 11 -88 11 -145 29 -91 29 19 0 21 3 12 14 -10 11 -8 15 6 19 14 4 13
5 -4 6 -24 1 -32 26 -11 33 6 2 43 -1 82 -6 58 -9 73 -15 81 -33z m-35 -233
c0 -5 -5 -10 -12 -10 -30 0 4 -10 52 -16 49 -5 53 -4 41 10 -19 23 3 20 24 -4
10 -11 21 -17 26 -14 14 8 57 -7 64 -23 4 -13 3 -14 -9 -4 -12 10 -13 9 -9 -9
5 -17 2 -21 -13 -19 -10 2 -24 0 -30 -4 -7 -4 -23 -1 -36 6 -15 7 -45 11 -74
8 -40 -3 -45 -6 -24 -12 14 -4 42 -7 63 -8 20 -1 37 -5 37 -10 0 -5 8 -12 18
-15 9 -2 -46 -4 -123 -3 -154 1 -165 3 -165 24 0 8 3 12 8 10 4 -2 30 -1 57 3
47 7 48 7 12 9 -23 0 -36 5 -32 11 4 6 3 10 -2 9 -4 -1 -19 -1 -33 0 -18 1
-21 4 -11 10 7 5 10 14 7 20 -5 7 5 11 30 11 41 0 37 15 -6 23 -14 2 12 5 58
6 49 0 82 -3 82 -9z m84 -175 c82 -7 86 -9 79 -35 -5 -19 -11 -20 -94 -16 -66
4 -89 2 -90 -7 0 -9 -2 -9 -6 1 -2 6 -22 12 -43 12 -29 0 -41 6 -54 24 l-16
25 53 3 c28 2 63 2 77 1 14 -1 56 -5 94 -8z m-51 -482 c17 -41 23 -31 7 11
-13 35 3 33 17 -1 l12 -28 -6 28 c-5 25 -3 27 29 27 28 0 34 -4 36 -22 4 -38
7 -52 16 -67 6 -9 0 -22 -18 -40 -26 -26 -28 -26 -177 -26 -157 0 -187 5 -150
24 14 8 21 8 21 1 0 -5 4 -10 9 -10 5 0 8 16 7 35 -2 20 1 35 8 36 7 0 6 3 -1
6 -19 7 -16 23 5 24 16 1 16 2 0 6 -32 8 -19 25 16 22 19 -2 37 -1 41 2 3 3
29 7 59 8 53 1 54 1 69 -36z"/>
<path d="M3468 2260 c-15 -4 -34 -15 -42 -23 -13 -12 -10 -16 25 -27 41 -14
89 -51 89 -70 0 -5 7 -10 16 -10 12 0 15 6 10 25 -6 23 -4 25 18 19 13 -3 37
1 52 9 16 7 56 20 89 28 l60 13 -70 7 c-38 3 -89 4 -111 1 -35 -4 -44 -1 -53
17 -12 22 -36 25 -83 11z"/>
<path d="M3401 1675 c-2 -103 -7 -110 -73 -108 -29 1 -128 4 -220 8 l-168 5 0
-52 c0 -29 4 -57 8 -63 4 -6 119 -10 308 -10 284 0 303 -1 323 -19 13 -12 19
-26 16 -37 -3 -9 -1 -20 5 -24 5 -3 7 -17 4 -30 -3 -12 -1 -26 5 -30 8 -4 10
10 9 44 -2 45 1 54 30 84 l33 34 -58 0 c-121 -1 -206 3 -200 9 3 3 46 6 96 6
88 0 91 0 91 22 0 20 -7 24 -46 30 -26 3 -64 6 -85 6 -22 0 -39 5 -39 10 0 6
-8 10 -17 10 -16 0 -18 8 -15 58 2 32 2 73 -1 92 -2 19 -5 -1 -6 -45z"/>
<path d="M138 773 c-13 -3 -15 -10 -9 -31 8 -28 6 -43 -11 -78 -8 -18 -18 -21
-64 -19 -50 2 -53 1 -43 -16 5 -11 14 -19 19 -19 6 0 10 -7 10 -14 0 -8 12
-21 27 -28 18 -8 28 -21 28 -35 0 -12 9 -30 18 -41 13 -14 15 -21 6 -24 -9 -3
-8 -10 2 -27 13 -20 12 -24 -13 -46 -24 -20 -25 -25 -13 -41 8 -11 15 -25 15
-33 0 -14 45 -61 59 -61 4 0 14 -18 21 -41 8 -22 18 -43 23 -46 6 -4 8 1 4 11
-9 24 23 34 35 12 9 -17 11 -16 22 5 6 13 25 30 41 39 17 8 33 19 37 24 3 5
27 9 52 9 53 0 64 21 16 31 -26 5 -30 10 -30 39 0 31 20 60 57 81 16 9 92 -12
115 -32 14 -12 20 -11 41 2 29 20 86 11 105 -16 11 -15 21 -17 50 -12 20 4 42
10 47 14 15 11 68 23 91 21 12 -1 24 5 27 13 8 19 -14 21 -31 4 -9 -9 -12 -9
-12 0 0 6 -13 18 -30 27 -17 9 -30 24 -30 34 0 27 35 54 59 46 11 -3 28 -2 37
3 15 9 15 10 -5 17 -26 8 -78 -2 -109 -23 -34 -22 -129 0 -134 31 -4 28 -48
35 -71 12 -10 -10 -25 -13 -40 -9 -18 4 -30 -1 -45 -16 -14 -16 -26 -20 -42
-15 -14 4 -26 2 -33 -8 -26 -32 -117 -30 -117 3 0 28 26 43 63 36 l32 -6 -25
23 c-21 20 -33 23 -67 20 -30 -4 -43 -10 -43 -20 0 -11 -7 -14 -27 -8 -57 13
-96 83 -69 120 10 14 11 26 3 51 -11 35 -21 43 -49 37z"/>
<path d="M759 102 c-28 -2 -38 -8 -43 -24 -5 -21 -6 -21 -26 -3 -16 14 -20 15
-20 3 0 -8 -14 -24 -30 -37 -24 -17 -31 -19 -36 -8 -6 16 -51 20 -60 5 -3 -5
-12 -1 -20 9 -12 16 -15 16 -24 3 -15 -22 -12 -30 9 -30 11 0 22 -4 25 -9 3
-5 56 -9 117 -10 96 -2 113 1 124 16 10 14 27 18 72 18 54 0 123 19 123 34 0
27 -100 42 -211 33z"/>
</g>
</svg>
